<?xml version="1.0" encoding="UTF-8"?>
<svg width="24px" height="25px" viewBox="0 0 24 25" version="1.1" xmlns="http://www.w3.org/2000/svg" xmlns:xlink="http://www.w3.org/1999/xlink">
    <title>首页@2x</title>
    <g id="页面-1" stroke="none" stroke-width="1" fill="none" fill-rule="evenodd">
        <g id="画板" transform="translate(-643.000000, -46.000000)">
            <g id="首页" transform="translate(643.000000, 46.500000)">
                <rect id="Rectangle" x="0" y="0" width="24" height="24"></rect>
                <path d="M10.5430712,1.37752817 C11.4491388,0.874157276 12.5508612,0.874157276 13.4569288,1.37752817 L13.4569288,1.37752817 L20.4569288,5.26641706 C21.4093243,5.7955257 22,6.79938751 22,7.88888889 L22,7.88888889 L22,17.8787489 C22,19.4639176 20.6383659,20.7120822 19,20.7120822 L19,20.7120822 L5,20.7120822 C3.36163406,20.7120822 2,19.4639176 2,17.8787489 L2,17.8787489 L2,7.88888889 C2,6.79938751 2.59067565,5.7955257 3.54307121,5.26641706 L3.54307121,5.26641706 Z M10,14 C9.44771525,14 9,14.4477153 9,15 C9,15.5522847 9.44771525,16 10,16 L10,16 L14,16 C14.5522847,16 15,15.5522847 15,15 C15,14.4477153 14.5522847,14 14,14 L14,14 Z" id="形状结合" fill="#648FFC"></path>
            </g>
        </g>
    </g>
</svg>