<?xml version="1.0" encoding="UTF-8"?>
<svg width="25px" height="25px" viewBox="0 0 25 25" version="1.1" xmlns="http://www.w3.org/2000/svg" xmlns:xlink="http://www.w3.org/1999/xlink">
    <title>我的</title>
    <g id="页面-1" stroke="none" stroke-width="1" fill="none" fill-rule="evenodd">
        <g id="画板" transform="translate(-606.000000, -46.000000)">
            <g id="我的" transform="translate(606.500000, 46.500000)">
                <rect id="Rectangle-Copy" x="0" y="0" width="24" height="24"></rect>
                <g id="Group-23" transform="translate(2.500000, 2.500000)" fill="#CCCCCC" fill-rule="nonzero">
                    <path d="M9.5,-1 C15.2989899,-1 20,3.70101013 20,9.5 C20,15.2989899 15.2989899,20 9.5,20 C3.70101013,20 -1,15.2989899 -1,9.5 C-1,3.70101013 3.70101013,-1 9.5,-1 Z M6.90456394,11.6545973 C6.64222868,11.2002193 6.0612178,11.0445379 5.60683981,11.3068732 C5.15246182,11.5692084 4.99678042,12.1502193 5.25911567,12.6045973 C6.57220427,14.8789335 9.49781498,15.6422107 11.7914199,14.3179972 C12.4967256,13.9107888 13.0776051,13.3425442 13.4944914,12.6639456 C13.7691292,12.2168961 13.6293619,11.631853 13.1823124,11.3572152 C12.7352629,11.0825774 12.1502198,11.2223447 11.8755821,11.6693942 C11.6231818,12.0802459 11.2715899,12.4241902 10.8414199,12.672549 C9.45174939,13.4748756 7.6901574,13.0152851 6.90456394,11.6545973 Z" id="形状结合"></path>
                </g>
            </g>
        </g>
    </g>
</svg>