<?xml version="1.0" encoding="utf-8"?>
<!-- Generator: Adobe Illustrator 23.1.0, SVG Export Plug-In . SVG Version: 6.00 Build 0)  -->
<svg version="1.1" id="图层_1" xmlns="http://www.w3.org/2000/svg" xmlns:xlink="http://www.w3.org/1999/xlink" x="0px" y="0px"
	 viewBox="0 0 33 32" style="enable-background:new 0 0 33 32;" xml:space="preserve">
<style type="text/css">
	.st0{fill:none;}
	.st1{fill:#333333;}
	.st2{fill:#2C2C2C;}
</style>
<title>common/backward</title>
<g id="Rectangle-Copy-8">
	<rect x="0.8" class="st0" width="32" height="32"/>
</g>
<g id="形状">
	<path class="st1" d="M15.7,20C15.7,20,15.6,20,15.7,20c-1-0.1-1.2-0.6-1.2-1.1v-5.7c0-0.4,0.2-0.7,0.3-0.8c0.2-0.2,0.4-0.3,0.9-0.3
		c0.1,0,0.2,0,0.3,0.1l4.6,2.9c0.4,0.3,0.5,0.6,0.5,1c0,0.4-0.2,0.8-0.5,1L16,19.9C15.9,20,15.8,20,15.7,20z M15.8,13.5l0,4.9
		l3.9-2.5L15.8,13.5z M19.9,15.9C19.9,15.9,19.9,15.9,19.9,15.9L19.9,15.9z"/>
</g>
<g id="Group-13" transform="translate(16.000000, 16.000000) scale(-1, 1) translate(-16.000000, -16.000000) translate(4.000000, 4.000000)">
	<g id="Path">
		<path class="st2" d="M11.1,24.6c6.4,0,11.8-4.8,12.6-11.1c0.1-0.4-0.2-0.8-0.7-0.8c-0.4,0-0.8,0.2-0.8,0.7
			c-0.7,5.6-5.5,9.8-11.1,9.8c-6.2,0-11.2-5-11.2-11.2c0-6.2,5-11.2,11.2-11.2c3.9,0,7.5,2,9.5,5.4c0.2,0.4,0.7,0.5,1,0.2
			c0.4-0.2,0.5-0.7,0.2-1c-2.3-3.8-6.4-6.1-10.8-6.1c-7,0-12.7,5.7-12.7,12.7C-1.6,18.9,4.1,24.6,11.1,24.6z"/>
	</g>
	<g id="Stroke-1">
		<path class="st2" d="M21.3,6.5c0.4,0,0.8-0.3,0.8-0.8V1.6c0-0.4-0.3-0.8-0.8-0.8s-0.8,0.3-0.8,0.8v4.1C20.5,6.1,20.9,6.5,21.3,6.5
			z"/>
	</g>
	<g id="Stroke-2">
		<path class="st2" d="M17.2,6.5h4.1c0.4,0,0.8-0.3,0.8-0.8S21.7,5,21.3,5h-4.1c-0.4,0-0.8,0.3-0.8,0.8S16.8,6.5,17.2,6.5z"/>
	</g>
</g>
</svg>
