<?xml version="1.0" encoding="utf-8"?>
<!-- Generator: Adobe Illustrator 23.1.0, SVG Export Plug-In . SVG Version: 6.00 Build 0)  -->
<svg version="1.1" id="图层_1" xmlns="http://www.w3.org/2000/svg" xmlns:xlink="http://www.w3.org/1999/xlink" x="0px" y="0px"
	 viewBox="0 0 26 24" style="enable-background:new 0 0 26 24;" xml:space="preserve">
<style type="text/css">
	.st0{fill:#FFFFFF;}
</style>
<title>Icons/Arrows/Big/Left</title>
<g id="Group" transform="translate(12.034043, 12.000000) rotate(-180.000000) translate(-12.034043, -12.000000) translate(8.022695, 5.000000)">
	<g id="Line">
		<path class="st0" d="M0.8,0.5c0.2,0,0.4,0.1,0.6,0.2l6.1,6.1c0.3,0.3,0.3,0.8,0,1.1s-0.8,0.3-1.1,0L0.2,1.8
			c-0.3-0.3-0.3-0.8,0-1.1C0.4,0.5,0.6,0.5,0.8,0.5z"/>
	</g>
	<g id="Line-2">
		<path class="st0" d="M6.9,6.5c0.2,0,0.4,0.1,0.6,0.2c0.3,0.3,0.3,0.8,0,1.1L1.3,14c-0.3,0.3-0.8,0.3-1.1,0c-0.3-0.3-0.3-0.8,0-1.1
			l6.1-6.1C6.5,6.6,6.7,6.5,6.9,6.5z"/>
	</g>
</g>
</svg>
