<?xml version="1.0" encoding="utf-8"?>
<!-- Generator: Adobe Illustrator 23.1.0, SVG Export Plug-In . SVG Version: 6.00 Build 0)  -->
<svg version="1.1" id="图层_1" xmlns="http://www.w3.org/2000/svg" xmlns:xlink="http://www.w3.org/1999/xlink" x="0px" y="0px"
	 viewBox="0 0 19 18" style="enable-background:new 0 0 19 18;" xml:space="preserve">
<style type="text/css">
	.st0{fill:#FFFFFF;}
</style>
<title>Icons/ExpandVideo</title>
<g id="Stroke-1">
	<path class="st0" d="M1.7,5.8C1.3,5.8,0.9,5.4,0.9,5V3c0-1.5,1.2-2.8,2.8-2.8h2c0.4,0,0.8,0.3,0.8,0.8S6.1,1.8,5.7,1.8h-2
		C3,1.8,2.4,2.3,2.4,3v2C2.4,5.4,2.1,5.8,1.7,5.8z"/>
</g>
<g id="Stroke-3">
	<path class="st0" d="M5.7,17.8h-2c-1.5,0-2.8-1.2-2.8-2.8v-2c0-0.4,0.3-0.8,0.8-0.8s0.8,0.3,0.8,0.8v2c0,0.7,0.6,1.2,1.2,1.2h2
		c0.4,0,0.8,0.3,0.8,0.8S6.1,17.8,5.7,17.8z"/>
</g>
<g id="Stroke-5">
	<path class="st0" d="M15.7,17.8h-2c-0.4,0-0.8-0.3-0.8-0.8s0.3-0.8,0.8-0.8h2c0.7,0,1.2-0.6,1.2-1.2v-2c0-0.4,0.3-0.8,0.8-0.8
		s0.8,0.3,0.8,0.8v2C18.4,16.5,17.2,17.8,15.7,17.8z"/>
</g>
<g id="Stroke-7">
	<path class="st0" d="M17.7,5.8c-0.4,0-0.8-0.3-0.8-0.8V3c0-0.7-0.6-1.2-1.2-1.2h-2c-0.4,0-0.8-0.3-0.8-0.8s0.3-0.8,0.8-0.8h2
		c1.5,0,2.8,1.2,2.8,2.8v2C18.4,5.4,18.1,5.8,17.7,5.8z"/>
</g>
</svg>
