<?xml version="1.0" encoding="utf-8"?>
<!-- Generator: Adobe Illustrator 23.1.0, SVG Export Plug-In . SVG Version: 6.00 Build 0)  -->
<svg version="1.1" id="图层_1" xmlns="http://www.w3.org/2000/svg" xmlns:xlink="http://www.w3.org/1999/xlink" x="0px" y="0px"
	 viewBox="0 0 33 32" style="enable-background:new 0 0 33 32;" xml:space="preserve">
<style type="text/css">
	.st0{fill:#648FFC;}
</style>
<g id="路径">
	<path class="st0" d="M27.4,25.4H6.7c-0.4,0-0.8-0.1-1.2-0.3c-1-0.6-1.2-1.9-0.6-2.9L15.3,6.7c0.2-0.2,0.3-0.4,0.6-0.6
		c0.5-0.3,1-0.4,1.6-0.3c0.5,0.1,1,0.4,1.3,0.9l10.3,15.5l0,0c0.2,0.3,0.4,0.7,0.4,1.2C29.5,24.5,28.5,25.4,27.4,25.4z M17.1,7.3
		c-0.1,0-0.2,0-0.3,0.1c-0.1,0-0.1,0.1-0.2,0.2L6.3,23c-0.2,0.3-0.1,0.6,0.2,0.8c0.1,0.1,0.2,0.1,0.3,0.1h20.6
		c0.3,0,0.6-0.3,0.6-0.6c0-0.1,0-0.2-0.1-0.3L17.5,7.5c-0.1-0.1-0.2-0.2-0.4-0.2C17.1,7.3,17.1,7.3,17.1,7.3z"/>
</g>
<g id="路径-2">
	<path class="st0" d="M17.8,24.8l-1.5,0c0-10.5,0-16.6,0-18.2l1.5,0C17.8,8.2,17.8,14.3,17.8,24.8z"/>
</g>
</svg>
