<?xml version="1.0" encoding="utf-8"?>
<!-- Generator: Adobe Illustrator 23.1.0, SVG Export Plug-In . SVG Version: 6.00 Build 0)  -->
<svg version="1.1" id="图层_1" xmlns="http://www.w3.org/2000/svg" xmlns:xlink="http://www.w3.org/1999/xlink" x="0px" y="0px"
	 viewBox="0 0 25 24" style="enable-background:new 0 0 25 24;" xml:space="preserve">
<style type="text/css">
	.st0{fill:#FFFFFF;}
</style>
<g id="路径">
	<path class="st0" d="M21.1,20.2H3.7c-0.4,0-0.7-0.1-1-0.3c-0.4-0.3-0.7-0.7-0.8-1.2c-0.1-0.5,0-1,0.3-1.4l8.7-13
		c0.1-0.2,0.3-0.4,0.5-0.5c0.4-0.3,0.9-0.4,1.4-0.3c0.5,0.1,0.9,0.4,1.2,0.8l8.7,13c0.2,0.3,0.3,0.7,0.3,1
		C22.9,19.3,22.1,20.2,21.1,20.2z M12.4,4.9c-0.1,0-0.1,0-0.2,0.1c0,0-0.1,0.1-0.1,0.1l-8.7,13c-0.1,0.1-0.1,0.2-0.1,0.3
		s0,0.2,0.2,0.2c0.1,0,0.1,0.1,0.2,0.1h17.4c0.2,0,0.4-0.2,0.4-0.4c0-0.1,0-0.1-0.1-0.2c0,0,0,0,0,0l-8.7-13
		C12.6,5,12.5,4.9,12.4,4.9C12.4,4.9,12.4,4.9,12.4,4.9z"/>
</g>
<g id="路径-2">
	<path class="st0" d="M13.1,19.6l-1.5,0c0-8.8,0-14,0-15.3l1.5,0C13.1,5.5,13.1,10.7,13.1,19.6z"/>
</g>
</svg>
