<?xml version="1.0" encoding="utf-8"?>
<!-- Generator: Adobe Illustrator 23.1.0, SVG Export Plug-In . SVG Version: 6.00 Build 0)  -->
<svg version="1.1" id="图层_1" xmlns="http://www.w3.org/2000/svg" xmlns:xlink="http://www.w3.org/1999/xlink" x="0px" y="0px"
	 viewBox="0 0 25 24" style="enable-background:new 0 0 25 24;" xml:space="preserve">
<style type="text/css">
	.st0{fill-rule:evenodd;clip-rule:evenodd;fill:#2C2C2C;}
	.st1{fill:#2C2C2C;}
</style>
<title>common/play/line</title>
<g id="Triangle">
	<path class="st0" d="M15.1,12.8L11.6,15c-0.5,0.3-1.1,0.2-1.4-0.3c-0.1-0.2-0.2-0.3-0.2-0.5V9.8c0-0.6,0.4-1,1-1
		c0.2,0,0.4,0.1,0.5,0.2l3.5,2.2c0.5,0.3,0.6,0.9,0.3,1.4C15.4,12.7,15.3,12.8,15.1,12.8z"/>
</g>
<g id="Stroke-1">
	<path class="st1" d="M12.5,22.8C6.6,22.8,1.8,17.9,1.8,12S6.6,1.2,12.5,1.2S23.2,6.1,23.2,12S18.4,22.8,12.5,22.8z M12.5,2.8
		c-5.1,0-9.2,4.1-9.2,9.2s4.1,9.2,9.2,9.2s9.2-4.1,9.2-9.2S17.6,2.8,12.5,2.8z"/>
</g>
</svg>
