<?xml version="1.0" encoding="utf-8"?>
<!-- Generator: Adobe Illustrator 23.1.0, SVG Export Plug-In . SVG Version: 6.00 Build 0)  -->
<svg version="1.1" id="图层_1" xmlns="http://www.w3.org/2000/svg" xmlns:xlink="http://www.w3.org/1999/xlink" x="0px" y="0px"
	 viewBox="0 0 25 24" style="enable-background:new 0 0 25 24;" xml:space="preserve">
<style type="text/css">
	.st0{fill-rule:evenodd;clip-rule:evenodd;fill:#2C2C2C;}
</style>
<title>icons/location/locationfilled备份 9</title>
<path id="形状结合" class="st0" d="M12.3,1.2c5.9,0,10.8,4.8,10.8,10.8s-4.8,10.8-10.8,10.8S1.6,17.9,1.6,12S6.4,1.2,12.3,1.2z
	 M9.3,7.9C9,7.6,8.5,7.7,8.3,7.9C8,8.2,8,8.7,8.3,9l0,0l3,3l-3,3l-0.1,0.1c-0.2,0.3-0.2,0.7,0.1,1c0.3,0.3,0.8,0.3,1.1,0l0,0l3-3
	l3,3l0.1,0.1c0.3,0.2,0.7,0.2,1-0.1c0.3-0.3,0.3-0.8,0-1.1l0,0l-3-3l3-3l0.1-0.1c0.2-0.3,0.2-0.7-0.1-1c-0.3-0.3-0.8-0.3-1.1,0l0,0
	l-3,3L9.3,7.9L9.3,7.9z"/>
</svg>
