<?xml version="1.0" encoding="utf-8"?>
<!-- Generator: Adobe Illustrator 23.1.0, SVG Export Plug-In . SVG Version: 6.00 Build 0)  -->
<svg version="1.1" id="图层_1" xmlns="http://www.w3.org/2000/svg" xmlns:xlink="http://www.w3.org/1999/xlink" x="0px" y="0px"
	 viewBox="0 0 24 24" style="enable-background:new 0 0 24 24;" xml:space="preserve">
<style type="text/css">
	.st0{opacity:0;fill-rule:evenodd;clip-rule:evenodd;fill:#D8D8D8;}
	.st1{fill-rule:evenodd;clip-rule:evenodd;fill:#FFFFFF;}
</style>
<title>暂停</title>
<rect id="矩形" class="st0" width="24" height="24"/>
<path id="Rectangle" class="st1" d="M7.8,5.5L7.8,5.5C8.4,5.5,9,6.1,9,6.8v10.5c0,0.7-0.6,1.2-1.2,1.2l0,0c-0.7,0-1.2-0.6-1.2-1.2
	V6.8C6.5,6.1,7.1,5.5,7.8,5.5z"/>
<path id="Rectangle-Copy-10" class="st1" d="M16.2,5.5L16.2,5.5c0.7,0,1.2,0.6,1.2,1.2v10.5c0,0.7-0.6,1.2-1.2,1.2l0,0
	c-0.7,0-1.2-0.6-1.2-1.2V6.8C15,6.1,15.6,5.5,16.2,5.5z"/>
</svg>
