<?xml version="1.0" encoding="utf-8"?>
<!-- Generator: Adobe Illustrator 23.1.0, SVG Export Plug-In . SVG Version: 6.00 Build 0)  -->
<svg version="1.1" id="图层_1" xmlns="http://www.w3.org/2000/svg" xmlns:xlink="http://www.w3.org/1999/xlink" x="0px" y="0px"
	 viewBox="0 0 33 32" style="enable-background:new 0 0 33 32;" xml:space="preserve">
<style type="text/css">
	.st0{fill:#FFFFFF;}
</style>
<title>Icons/Library/Outlined big</title>
<g id="Group-5" transform="translate(4.000000, 5.263158)">
	<g id="Stroke-1">
		<path class="st0" d="M12.9,17.5c-3.2,0-5.8-2.6-5.8-5.8S9.7,6,12.9,6c3.2,0,5.8,2.6,5.8,5.8S16.1,17.5,12.9,17.5z M12.9,7.5
			c-2.4,0-4.3,1.9-4.3,4.3s1.9,4.3,4.3,4.3c2.4,0,4.3-1.9,4.3-4.3S15.3,7.5,12.9,7.5z"/>
	</g>
	<g id="Stroke-3">
		<path class="st0" d="M21.7,21.3H3.9c-1.8,0-3.3-1.5-3.3-3.3V6.8c0-1.8,1.5-3.3,3.3-3.3H6l1.6-2.8c0.4-0.6,1-1,1.7-1h6.8
			c0.7,0,1.4,0.4,1.7,1l1.7,2.8h2.1C23.6,3.5,25,5,25,6.8v11.3C25,19.9,23.6,21.3,21.7,21.3z M3.9,5c-1,0-1.8,0.8-1.8,1.8v11.3
			c0,1,0.8,1.8,1.8,1.8h17.8c1,0,1.8-0.8,1.8-1.8V6.8c0-1-0.8-1.8-1.8-1.8h-2.5c-0.3,0-0.5-0.1-0.6-0.4l-1.9-3.2
			c-0.1-0.2-0.3-0.2-0.5-0.2H9.4C9.2,1.2,9,1.3,9,1.5L7.1,4.6C7,4.8,6.7,5,6.4,5H3.9z"/>
	</g>
</g>
</svg>
