<?xml version="1.0" encoding="utf-8"?>
<!-- Generator: Adobe Illustrator 23.1.0, SVG Export Plug-In . SVG Version: 6.00 Build 0)  -->
<svg version="1.1" id="图层_1" xmlns="http://www.w3.org/2000/svg" xmlns:xlink="http://www.w3.org/1999/xlink" x="0px" y="0px"
	 viewBox="0 0 25 24" style="enable-background:new 0 0 25 24;" xml:space="preserve">
<style type="text/css">
	.st0{fill:#CCCCCC;}
</style>
<title>Icons/Library/Outlined</title>
<g id="Group-5" transform="translate(3.040000, 4.000000)">
	<g id="Stroke-1">
		<path class="st0" d="M9.2,13.7c-2.6,0-4.8-2.1-4.8-4.7s2.1-4.7,4.8-4.7C11.8,4.3,14,6.4,14,9S11.8,13.7,9.2,13.7z M9.2,5.8
			C7.4,5.8,5.9,7.2,5.9,9s1.5,3.2,3.3,3.2c1.8,0,3.3-1.5,3.3-3.2S11,5.8,9.2,5.8z"/>
	</g>
	<g id="Stroke-3">
		<path class="st0" d="M16.2,16.8H2c-1.5,0-2.8-1.2-2.8-2.8V5c0-1.5,1.2-2.8,2.8-2.8h1.6l1.3-2.1c0.3-0.5,0.9-0.9,1.5-0.9h5.4
			c0.6,0,1.2,0.3,1.5,0.8l1.3,2.2h1.6C17.7,2.2,19,3.5,19,5v9C19,15.5,17.7,16.8,16.2,16.8z M2,3.8C1.3,3.8,0.8,4.3,0.8,5v9
			c0,0.7,0.6,1.2,1.3,1.2h14.2c0.7,0,1.3-0.6,1.3-1.2V5c0-0.7-0.6-1.2-1.3-1.2h-2c-0.3,0-0.5-0.1-0.6-0.4L12,0.9
			c0-0.1-0.1-0.1-0.2-0.1H6.4c-0.1,0-0.2,0-0.2,0.1L4.7,3.4C4.6,3.6,4.3,3.8,4.1,3.8H2z"/>
	</g>
</g>
</svg>
