<?xml version="1.0" encoding="utf-8"?>
<!-- Generator: Adobe Illustrator 23.1.0, SVG Export Plug-In . SVG Version: 6.00 Build 0)  -->
<svg version="1.1" id="图层_1" xmlns="http://www.w3.org/2000/svg" xmlns:xlink="http://www.w3.org/1999/xlink" x="0px" y="0px"
	 viewBox="0 0 25 24" style="enable-background:new 0 0 25 24;" xml:space="preserve">
<style type="text/css">
	.st0{fill:#CCCCCC;}
</style>
<title>Icons/Check/Checked备份 3</title>
<path id="形状" class="st0" d="M12.7,4c-0.4,0-0.8,0.5-0.8,1.1v13.8c0,0.6,0.4,1.1,0.8,1.1c0.4,0,0.8-0.5,0.8-1.1V5.1
	C13.5,4.5,13.1,4,12.7,4z M17.5,7.2c-0.4,0-0.8,0.4-0.8,0.9v7.7c0,0.5,0.4,0.9,0.8,0.9s0.8-0.4,0.8-0.9V8.1
	C18.3,7.6,17.9,7.2,17.5,7.2z M7.9,7.2c-0.4,0-0.8,0.4-0.8,0.9v7.7c0,0.5,0.4,0.9,0.8,0.9s0.8-0.4,0.8-0.9V8.1
	C8.7,7.6,8.3,7.2,7.9,7.2z M22.3,9.6c-0.4,0-0.8,0.4-0.8,0.8v3.1c0,0.5,0.4,0.8,0.8,0.8s0.8-0.4,0.8-0.8v-3.1
	C23.1,10,22.7,9.6,22.3,9.6z M3.1,9.6c-0.4,0-0.8,0.4-0.8,0.8v3.1c0,0.5,0.4,0.8,0.8,0.8s0.8-0.4,0.8-0.8v-3.1
	C3.9,10,3.5,9.6,3.1,9.6z"/>
</svg>
