<?xml version="1.0" encoding="utf-8"?>
<!-- Generator: Adobe Illustrator 23.1.0, SVG Export Plug-In . SVG Version: 6.00 Build 0)  -->
<svg version="1.1" id="图层_1" xmlns="http://www.w3.org/2000/svg" xmlns:xlink="http://www.w3.org/1999/xlink" x="0px" y="0px"
	 viewBox="0 0 33 32" style="enable-background:new 0 0 33 32;" xml:space="preserve">
<style type="text/css">
	.st0{fill:#2C2C2C;}
</style>
<title>common/talk/originalsound big</title>
<g id="路径-2">
	<path class="st0" d="M16.8,25.2c-0.4,0-0.8-0.3-0.8-0.8v-17c0-0.4,0.3-0.8,0.8-0.8s0.8,0.3,0.8,0.8v17
		C17.6,24.9,17.2,25.2,16.8,25.2z"/>
</g>
<g id="路径-2备份">
	<path class="st0" d="M22.4,21.1c-0.4,0-0.8-0.3-0.8-0.8v-9.7c0-0.4,0.3-0.8,0.8-0.8s0.8,0.3,0.8,0.8v9.7
		C23.1,20.7,22.8,21.1,22.4,21.1z"/>
</g>
<g id="路径-2备份-3">
	<path class="st0" d="M11.3,21.1c-0.4,0-0.8-0.3-0.8-0.8v-9.7c0-0.4,0.3-0.8,0.8-0.8s0.8,0.3,0.8,0.8v9.7
		C12,20.7,11.7,21.1,11.3,21.1z"/>
</g>
<g id="路径-2备份-2">
	<path class="st0" d="M27.9,18.3c-0.4,0-0.8-0.3-0.8-0.8v-4c0-0.4,0.3-0.8,0.8-0.8s0.8,0.3,0.8,0.8v4C28.6,17.9,28.3,18.3,27.9,18.3
		z"/>
</g>
<g id="路径-2备份-4">
	<path class="st0" d="M5.8,18.3c-0.4,0-0.8-0.3-0.8-0.8v-4c0-0.4,0.3-0.8,0.8-0.8s0.8,0.3,0.8,0.8v4C6.5,17.9,6.2,18.3,5.8,18.3z"/>
</g>
</svg>
