<?xml version="1.0" encoding="utf-8"?>
<!-- Generator: Adobe Illustrator 23.1.0, SVG Export Plug-In . SVG Version: 6.00 Build 0)  -->
<svg version="1.1" id="图层_1" xmlns="http://www.w3.org/2000/svg" xmlns:xlink="http://www.w3.org/1999/xlink" x="0px" y="0px"
	 viewBox="0 0 25 24" style="enable-background:new 0 0 25 24;" xml:space="preserve">
<style type="text/css">
	.st0{fill:#2C2C2C;}
</style>
<title>Icons/Settings备份</title>
<g id="Group-7" transform="translate(3.800000, 4.500000)">
	<g id="Path-3">
		<path class="st0" d="M13.9,15.8h-11c-1.5,0-2.8-1.2-2.8-2.8V2c0-1.5,1.2-2.8,2.8-2.8h4.9c0.4,0,0.8,0.3,0.8,0.8S8.1,0.8,7.7,0.8
			H2.9C2.2,0.8,1.6,1.3,1.6,2v11c0,0.7,0.6,1.2,1.2,1.2h11c0.7,0,1.2-0.6,1.2-1.2V8.1c0-0.4,0.3-0.8,0.8-0.8c0.4,0,0.8,0.3,0.8,0.8
			V13C16.6,14.5,15.4,15.8,13.9,15.8z"/>
	</g>
	<g id="Line-3">
		<path class="st0" d="M7.9,8.8c-0.2,0-0.4-0.1-0.5-0.2C7,8.2,7,7.8,7.3,7.5l7-7c0.3-0.3,0.8-0.3,1.1,0s0.3,0.8,0,1.1l-7,7
			C8.2,8.7,8.1,8.8,7.9,8.8z"/>
	</g>
	<g id="Path">
		<path class="st0" d="M15.9,4.8c-0.4,0-0.8-0.3-0.8-0.8V0.8h-3.2c-0.4,0-0.8-0.3-0.8-0.8s0.3-0.8,0.8-0.8h3.5
			c0.7,0,1.3,0.6,1.3,1.2V4C16.6,4.4,16.3,4.8,15.9,4.8z M15.4,0.8L15.4,0.8L15.4,0.8z"/>
	</g>
</g>
</svg>
