<?xml version="1.0" encoding="utf-8"?>
<!-- Generator: Adobe Illustrator 23.1.0, SVG Export Plug-In . SVG Version: 6.00 Build 0)  -->
<svg version="1.1" id="图层_1" xmlns="http://www.w3.org/2000/svg" xmlns:xlink="http://www.w3.org/1999/xlink" x="0px" y="0px"
	 viewBox="0 0 24 24" style="enable-background:new 0 0 24 24;" xml:space="preserve">
<style type="text/css">
	.st0{fill:#FFFFFF;}
</style>
<title>Icons/Volume/On</title>
<g id="Group-10" transform="translate(2.000000, 4.000000)">
	<g id="Group-9">
		<g id="Stroke-1">
			<path class="st0" d="M13.5,12.7c-0.3,0-0.5-0.1-0.6-0.4c-0.2-0.4-0.1-0.8,0.2-1c1-0.6,1.6-1.9,1.6-3.3c0-1.4-0.6-2.7-1.6-3.3
				c-0.4-0.2-0.5-0.7-0.2-1c0.2-0.3,0.7-0.5,1-0.2c1.4,0.9,2.3,2.7,2.3,4.6c0,2-0.9,3.7-2.3,4.6C13.8,12.7,13.7,12.7,13.5,12.7z"/>
		</g>
		<g id="Stroke-3">
			<path class="st0" d="M16.5,15.8c-0.2,0-0.4-0.1-0.6-0.3c-0.3-0.3-0.2-0.8,0.1-1.1c1.7-1.5,2.7-3.9,2.7-6.5c0-2.6-1-5-2.7-6.5
				c-0.3-0.3-0.4-0.7-0.1-1.1c0.3-0.3,0.7-0.3,1.1-0.1C19,2.1,20.2,5,20.2,8c0,3-1.2,5.9-3.3,7.6C16.9,15.8,16.7,15.8,16.5,15.8z"/>
		</g>
		<g id="Stroke-5">
			<path class="st0" d="M8.5,15.7c-0.4,0-0.8-0.1-1.1-0.4l-4-3.4c-0.3-0.3-0.4-0.7-0.1-1.1c0.3-0.3,0.7-0.4,1.1-0.1l4,3.4
				c0.1,0.1,0.2,0.1,0.3,0c0.1,0,0.1-0.1,0.1-0.2V2c0-0.1-0.1-0.2-0.1-0.2c-0.1,0-0.2-0.1-0.3,0l-4,3.4C4,5.5,3.6,5.4,3.3,5.1
				C3,4.8,3.1,4.3,3.4,4.1l4-3.4c0.5-0.4,1.2-0.5,1.9-0.3c0.6,0.3,1,0.9,1,1.6v12c0,0.7-0.4,1.3-1,1.6C9,15.7,8.7,15.7,8.5,15.7z"/>
		</g>
		<g id="Stroke-7">
			<path class="st0" d="M3.9,12.1H1.5c-1,0-1.8-0.8-1.8-1.8V5.6c0-1,0.8-1.8,1.8-1.8h2.4c0.4,0,0.8,0.3,0.8,0.8S4.3,5.4,3.9,5.4H1.5
				c-0.1,0-0.2,0.1-0.2,0.2v4.8c0,0.1,0.1,0.2,0.2,0.2h2.4c0.4,0,0.8,0.3,0.8,0.8S4.3,12.1,3.9,12.1z"/>
		</g>
	</g>
</g>
</svg>
