<?xml version="1.0" encoding="utf-8"?>
<!-- Generator: Adobe Illustrator 23.1.0, SVG Export Plug-In . SVG Version: 6.00 Build 0)  -->
<svg version="1.1" id="图层_1" xmlns="http://www.w3.org/2000/svg" xmlns:xlink="http://www.w3.org/1999/xlink" x="0px" y="0px"
	 viewBox="0 0 24 24" style="enable-background:new 0 0 24 24;" xml:space="preserve">
<style type="text/css">
	.st0{fill:#FFFFFF;}
</style>
<title>common/volume/off</title>
<g>
	<path class="st0" d="M10.5,19.7c-0.4,0-0.8-0.1-1.1-0.4l-4-3.4c-0.3-0.3-0.4-0.7-0.1-1.1c0.3-0.3,0.7-0.4,1.1-0.1l4,3.4
		c0.1,0.1,0.2,0.1,0.3,0c0.1,0,0.1-0.1,0.1-0.2V6c0-0.1-0.1-0.2-0.1-0.2c-0.1,0-0.2-0.1-0.3,0l-4,3.4C6,9.5,5.6,9.4,5.3,9.1
		C5,8.8,5.1,8.3,5.4,8.1l4-3.4c0.5-0.4,1.2-0.5,1.9-0.3c0.6,0.3,1,0.9,1,1.6v12c0,0.7-0.4,1.3-1,1.6C11,19.7,10.7,19.7,10.5,19.7z"
		/>
</g>
<g>
	<path class="st0" d="M5.9,16.1H3.5c-1,0-1.8-0.8-1.8-1.8V9.6c0-1,0.8-1.8,1.8-1.8h2.4c0.4,0,0.8,0.3,0.8,0.8S6.3,9.4,5.9,9.4H3.5
		c-0.1,0-0.2,0.1-0.2,0.2v4.8c0,0.1,0.1,0.2,0.2,0.2h2.4c0.4,0,0.8,0.3,0.8,0.8S6.3,16.1,5.9,16.1z"/>
</g>
<g>
	<path class="st0" d="M16.1,14.9c-0.2,0-0.4-0.1-0.5-0.2c-0.3-0.3-0.3-0.8,0-1.1L20,9.2c0.3-0.3,0.8-0.3,1.1,0s0.3,0.8,0,1.1
		l-4.5,4.5C16.5,14.9,16.3,14.9,16.1,14.9z"/>
</g>
<g>
	<path class="st0" d="M20.6,14.9c-0.2,0-0.4-0.1-0.5-0.2l-4.5-4.5c-0.3-0.3-0.3-0.8,0-1.1s0.8-0.3,1.1,0l4.5,4.5
		c0.3,0.3,0.3,0.8,0,1.1C21,14.9,20.8,14.9,20.6,14.9z"/>
</g>
</svg>
