<?xml version="1.0" encoding="utf-8"?>
<!-- Generator: Adobe Illustrator 23.1.0, SVG Export Plug-In . SVG Version: 6.00 Build 0)  -->
<svg version="1.1" id="图层_1" xmlns="http://www.w3.org/2000/svg" xmlns:xlink="http://www.w3.org/1999/xlink" x="0px" y="0px"
	 viewBox="0 0 25 24" style="enable-background:new 0 0 25 24;" xml:space="preserve">
<style type="text/css">
	.st0{fill:#2C2C2C;}
</style>
<title>icons/armdevice备份</title>
<g id="Stroke-1">
	<path class="st0" d="M12.3,15.8c-2,0-3.6-1.6-3.6-3.6V5.9c0-2,1.6-3.6,3.6-3.6c2,0,3.6,1.6,3.6,3.6v6.2
		C16,14.1,14.3,15.8,12.3,15.8z M12.3,3.8c-1.2,0-2.1,1-2.1,2.1v6.2c0,1.2,1,2.1,2.1,2.1c1.2,0,2.1-1,2.1-2.1V5.9
		C14.5,4.7,13.5,3.8,12.3,3.8z"/>
</g>
<g id="Stroke-3">
	<path class="st0" d="M12.3,18.8c-3.7,0-6.8-3-6.8-6.8v-2c0-0.4,0.3-0.8,0.8-0.8S7.1,9.6,7.1,10v2c0,2.9,2.4,5.2,5.2,5.2
		s5.2-2.4,5.2-5.2v-2c0-0.4,0.3-0.8,0.8-0.8s0.8,0.3,0.8,0.8v2C19.1,15.7,16,18.8,12.3,18.8z"/>
</g>
<g id="Stroke-5">
	<path class="st0" d="M16.4,21.8H8c-0.4,0-0.8-0.3-0.8-0.8s0.3-0.8,0.8-0.8h8.4c0.4,0,0.8,0.3,0.8,0.8S16.8,21.8,16.4,21.8z"/>
</g>
<g id="Stroke-7">
	<path class="st0" d="M12.3,21.8c-0.4,0-0.8-0.3-0.8-0.8v-3c0-0.4,0.3-0.8,0.8-0.8s0.8,0.3,0.8,0.8v3C13.1,21.4,12.7,21.8,12.3,21.8
		z"/>
</g>
</svg>
