<?xml version="1.0" encoding="utf-8"?>
<!-- Generator: Adobe Illustrator 23.1.0, SVG Export Plug-In . SVG Version: 6.00 Build 0)  -->
<svg version="1.1" id="图层_1" xmlns="http://www.w3.org/2000/svg" xmlns:xlink="http://www.w3.org/1999/xlink" x="0px" y="0px"
	 viewBox="0 0 33 32" style="enable-background:new 0 0 33 32;" xml:space="preserve">
<style type="text/css">
	.st0{fill:#CCCCCC;}
</style>
<title>Icons/Library/Outlined big2</title>
<g>
	<path class="st0" d="M16.3,25.8c-1.2,0-2.4-0.2-3.6-0.7c-0.4-0.1-0.6-0.6-0.4-1c0.1-0.4,0.6-0.6,1-0.4c1,0.4,2.1,0.6,3.1,0.6
		c0.4,0,0.7,0.3,0.7,0.8S16.7,25.8,16.3,25.8z"/>
</g>
<g>
	<path class="st0" d="M16.3,25.8c-0.4,0-0.8-0.3-0.8-0.8s0.3-0.8,0.8-0.8c4.6,0,8.9-4.1,11.2-8.2c0.2-0.4,0.7-0.5,1-0.3
		c0.4,0.2,0.5,0.7,0.3,1C26.4,21.2,21.6,25.8,16.3,25.8z"/>
</g>
<g>
	<path class="st0" d="M28.2,17.2c-0.1,0-0.2,0-0.4-0.1c-0.4-0.2-0.5-0.7-0.3-1c0.1-0.2,0.1-0.4,0-0.5c-0.6-1.1-1.4-2.3-2.3-3.3
		c-0.3-0.3-0.2-0.8,0.1-1.1c0.3-0.3,0.8-0.2,1.1,0.1c1,1.1,1.8,2.3,2.5,3.6c0.3,0.6,0.3,1.3,0,2C28.7,17,28.4,17.2,28.2,17.2z"/>
</g>
<g>
	<path class="st0" d="M7,25.8c-0.2,0-0.4-0.1-0.5-0.2c-0.3-0.3-0.3-0.8,0-1.1L25.1,6c0.3-0.3,0.8-0.3,1.1,0c0.3,0.3,0.3,0.8,0,1.1
		L7.5,25.5C7.4,25.7,7.2,25.8,7,25.8z"/>
</g>
<g>
	<path class="st0" d="M13.4,19.5c-0.2,0-0.4-0.1-0.5-0.2c-0.9-0.9-1.5-2.2-1.5-3.5c0-1.3,0.5-2.5,1.5-3.5c1.9-1.9,5.1-1.9,7,0
		c0.3,0.3,0.3,0.8,0,1.1c-0.3,0.3-0.8,0.3-1.1,0c-1.3-1.3-3.5-1.3-4.9,0c-0.6,0.6-1,1.5-1,2.4c0,0.9,0.4,1.8,1,2.4
		c0.3,0.3,0.3,0.8,0,1.1C13.7,19.4,13.5,19.5,13.4,19.5z"/>
</g>
<g>
	<path class="st0" d="M9.6,23.2c-0.2,0-0.3,0-0.5-0.2c-2.1-1.6-4-3.8-5.3-6.3c-0.3-0.6-0.3-1.3,0-2c2.5-4.5,7.3-9,12.5-9
		c2.4,0,4.8,0.9,7.2,2.7c0.3,0.3,0.4,0.7,0.1,1.1c-0.3,0.3-0.7,0.4-1.1,0.1c-2.1-1.6-4.2-2.4-6.3-2.4c-4.6,0-8.9,4.1-11.2,8.2
		C5,15.7,5,15.9,5.1,16c1.2,2.3,3,4.3,4.9,5.8c0.3,0.3,0.4,0.7,0.1,1.1C10,23.1,9.8,23.2,9.6,23.2z"/>
</g>
</svg>
