<?xml version="1.0" encoding="utf-8"?>
<!-- Generator: Adobe Illustrator 23.1.0, SVG Export Plug-In . SVG Version: 6.00 Build 0)  -->
<svg version="1.1" id="图层_1" xmlns="http://www.w3.org/2000/svg" xmlns:xlink="http://www.w3.org/1999/xlink" x="0px" y="0px"
	 viewBox="0 0 25 24" style="enable-background:new 0 0 25 24;" xml:space="preserve">
<style type="text/css">
	.st0{fill:#20262C;}
	.st1{fill:#2C2C2C;}
</style>
<title>Icons/Check/Checked备份 5</title>
<g>
	<path class="st0" d="M12.9,19.8c-0.9,0-1.8-0.2-2.8-0.5c-0.4-0.1-0.6-0.6-0.4-1s0.6-0.6,1-0.4c0.8,0.3,1.5,0.4,2.2,0.4
		c0.4,0,0.7,0.3,0.7,0.8S13.3,19.8,12.9,19.8z"/>
</g>
<g>
	<path class="st1" d="M12.9,19.8c-0.4,0-0.8-0.3-0.8-0.8s0.3-0.8,0.8-0.8c2.9,0,6.3-2.5,8.2-6.1c0.2-0.4,0.7-0.5,1-0.3
		c0.4,0.2,0.5,0.7,0.3,1C20.5,16.3,16.9,19.8,12.9,19.8z"/>
</g>
<g>
	<path class="st1" d="M21.7,13.2c-0.1,0-0.2,0-0.4-0.1c-0.4-0.2-0.5-0.7-0.3-1c0-0.1,0-0.2,0-0.2c-0.5-0.9-1-1.7-1.7-2.5
		c-0.3-0.3-0.2-0.8,0.1-1.1c0.3-0.3,0.8-0.2,1.1,0.1c0.7,0.9,1.4,1.8,1.9,2.7c0.3,0.5,0.3,1.1,0,1.6C22.3,13.1,22,13.2,21.7,13.2z"
		/>
</g>
<g>
	<path class="st1" d="M5.9,19.8c-0.2,0-0.4-0.1-0.5-0.2c-0.3-0.3-0.3-0.8,0-1.1l14-14c0.3-0.3,0.8-0.3,1.1,0s0.3,0.8,0,1.1l-14,14
		C6.2,19.7,6.1,19.8,5.9,19.8z"/>
</g>
<g>
	<path class="st1" d="M10.6,15c-0.2,0-0.4-0.1-0.5-0.2C9.4,14,9,13,9,12s0.4-2,1.1-2.8c1.5-1.5,4-1.5,5.5,0c0.3,0.3,0.3,0.8,0,1.1
		s-0.8,0.3-1.1,0c-0.9-0.9-2.5-0.9-3.4,0c-0.5,0.5-0.7,1.1-0.7,1.7s0.2,1.2,0.7,1.7c0.3,0.3,0.3,0.8,0,1.1C11,14.9,10.8,15,10.6,15z
		"/>
</g>
<g>
	<path class="st1" d="M7.8,17.8c-0.2,0-0.3-0.1-0.5-0.2c-1.6-1.2-3-2.9-4-4.8c-0.3-0.5-0.3-1.1,0-1.6c1.9-3.4,5.5-6.9,9.5-6.9
		c1.8,0,3.7,0.7,5.5,2.1c0.3,0.3,0.4,0.7,0.1,1.1c-0.3,0.3-0.7,0.4-1.1,0.1c-1.5-1.2-3.1-1.8-4.6-1.8c-2.9,0-6.3,2.5-8.2,6.1
		c0,0.1,0,0.2,0,0.2c0.9,1.7,2.2,3.2,3.6,4.3c0.3,0.3,0.4,0.7,0.1,1.1C8.3,17.7,8,17.8,7.8,17.8z"/>
</g>
</svg>
