<?xml version="1.0" encoding="utf-8"?>
<!-- Generator: Adobe Illustrator 23.1.0, SVG Export Plug-In . SVG Version: 6.00 Build 0)  -->
<svg version="1.1" id="图层_1" xmlns="http://www.w3.org/2000/svg" xmlns:xlink="http://www.w3.org/1999/xlink" x="0px" y="0px"
	 viewBox="0 0 24 24" style="enable-background:new 0 0 24 24;" xml:space="preserve">
<style type="text/css">
	
</style>
<title>Icons/Check/Checked备份</title>
<g id="pantile" transform="translate(2.000000, 2.000000)">
	<g id="Oval备份">
		<path class="st0" d="M10,13.5c-1.9,0-3.5-1.6-3.5-3.5c0-1.9,1.6-3.5,3.5-3.5c1.9,0,3.5,1.6,3.5,3.5C13.5,11.9,11.9,13.5,10,13.5z
			 M10,8c-1.1,0-2,0.9-2,2c0,1.1,0.9,2,2,2c1.1,0,2-0.9,2-2C12,8.9,11.1,8,10,8z"/>
	</g>
	<g id="路径-17">
		<path class="st0" d="M7.1,3.9c-0.2,0-0.4-0.1-0.6-0.3C6.2,3.3,6.3,2.8,6.6,2.6l1.7-1.3c1-0.8,2.4-0.8,3.4,0l1.7,1.3
			c0.3,0.3,0.4,0.7,0.1,1.1c-0.3,0.3-0.7,0.4-1.1,0.1l-1.7-1.3C10.3,2,9.7,2,9.2,2.4L7.5,3.7C7.4,3.8,7.2,3.9,7.1,3.9z"/>
	</g>
	<g id="路径-17备份-2">
		<path class="st0" d="M2.9,13.7c-0.2,0-0.4-0.1-0.6-0.3L1,11.7c-0.8-1-0.8-2.4,0-3.4l1.3-1.7C2.5,6.3,3,6.2,3.3,6.5
			c0.3,0.3,0.4,0.7,0.1,1.1L2.1,9.2c-0.4,0.5-0.4,1.1,0,1.5l1.3,1.7c0.3,0.3,0.2,0.8-0.1,1.1C3.2,13.6,3,13.7,2.9,13.7z"/>
	</g>
	<g id="路径-17备份-3">
		<path class="st0" d="M16.9,13.7c-0.2,0-0.3-0.1-0.5-0.2c-0.3-0.3-0.4-0.7-0.1-1.1l1.3-1.7c0.4-0.5,0.4-1.1,0-1.5l-1.3-1.7
			c-0.3-0.3-0.2-0.8,0.1-1.1c0.3-0.3,0.8-0.2,1.1,0.1l1.3,1.7c0.8,1,0.8,2.4,0,3.4l-1.3,1.7C17.4,13.6,17.1,13.7,16.9,13.7z"/>
	</g>
	<g id="路径-17备份">
		<path class="st0" d="M10,19.2c-0.6,0-1.2-0.2-1.7-0.6l-1.7-1.3c-0.3-0.3-0.4-0.7-0.1-1.1c0.3-0.3,0.7-0.4,1.1-0.1l1.7,1.3
			c0.5,0.4,1.1,0.4,1.5,0l1.7-1.3c0.3-0.3,0.8-0.2,1.1,0.1c0.3,0.3,0.2,0.8-0.1,1.1l-1.7,1.3C11.2,19,10.6,19.2,10,19.2z"/>
	</g>
</g>
</svg>
