<?xml version="1.0" encoding="utf-8"?>
<!-- Generator: Adobe Illustrator 23.1.0, SVG Export Plug-In . SVG Version: 6.00 Build 0)  -->
<svg version="1.1" id="图层_1" xmlns="http://www.w3.org/2000/svg" xmlns:xlink="http://www.w3.org/1999/xlink" x="0px" y="0px"
	 viewBox="0 0 33 32" style="enable-background:new 0 0 33 32;" xml:space="preserve">
<style type="text/css">
	.st0{fill:#CCCCCC;}
</style>
<title>common/pantile big</title>
<g id="pantile" transform="translate(2.666667, 3.666667)">
	<g id="Oval备份">
		<path class="st0" d="M14.2,17c-2.6,0-4.7-2.1-4.7-4.7c0-2.6,2.1-4.7,4.7-4.7c2.6,0,4.7,2.1,4.7,4.7C18.8,14.9,16.7,17,14.2,17z
			 M14.2,9.1c-1.8,0-3.2,1.4-3.2,3.2c0,1.8,1.4,3.2,3.2,3.2c1.8,0,3.2-1.4,3.2-3.2C17.3,10.6,15.9,9.1,14.2,9.1z"/>
	</g>
	<g id="路径-17">
		<path class="st0" d="M10.2,3.9c-0.2,0-0.4-0.1-0.6-0.3C9.4,3.3,9.5,2.9,9.8,2.6L12,0.8c1.2-1,3-1,4.2,0l2.3,1.8
			c0.3,0.3,0.4,0.7,0.1,1.1C18.4,4,17.9,4,17.6,3.8L15.3,2c-0.7-0.5-1.7-0.5-2.4,0l-2.3,1.8C10.6,3.9,10.4,3.9,10.2,3.9z"/>
	</g>
	<g id="路径-17备份-2">
		<path class="st0" d="M4.7,17c-0.2,0-0.4-0.1-0.6-0.3l-1.8-2.3c-1-1.2-1-3,0-4.2L4.1,8c0.3-0.3,0.7-0.4,1.1-0.1
			c0.3,0.3,0.4,0.7,0.1,1.1l-1.8,2.3c-0.5,0.7-0.5,1.7,0,2.4l1.8,2.3c0.3,0.3,0.2,0.8-0.1,1.1C5,16.9,4.8,17,4.7,17z"/>
	</g>
	<g id="路径-17备份-3">
		<path class="st0" d="M23.4,17c-0.2,0-0.3-0.1-0.5-0.2c-0.3-0.3-0.4-0.7-0.1-1.1l1.8-2.3c0.5-0.7,0.5-1.7,0-2.4l-1.8-2.3
			c-0.3-0.3-0.2-0.8,0.1-1.1C23.2,7.6,23.7,7.6,24,8l1.8,2.3c1,1.2,1,3,0,4.2L24,16.7C23.8,16.9,23.6,17,23.4,17z"/>
	</g>
	<g id="路径-17备份">
		<path class="st0" d="M14.2,24.4c-0.7,0-1.5-0.2-2.1-0.7l-2.3-1.8c-0.3-0.3-0.4-0.7-0.1-1.1c0.3-0.3,0.7-0.4,1.1-0.1l2.3,1.8
			c0.7,0.5,1.7,0.5,2.4,0l2.3-1.8c0.3-0.3,0.8-0.2,1.1,0.1c0.3,0.3,0.2,0.8-0.1,1.1l-2.3,1.8C15.6,24.1,14.9,24.4,14.2,24.4z"/>
	</g>
</g>
</svg>
